<mxfile host="app.diagrams.net" modified="2023-04-10T08:16:24.634Z" agent="Mozilla/5.0 (Windows NT 10.0; Win64; x64) AppleWebKit/537.36 (KHTML, like Gecko) Chrome/111.0.0.0 Safari/537.36" etag="SRcz1vMbAgX6Q-e-khTb" version="21.1.5" type="github">
  <diagram name="Sayfa -1" id="xeHO8yrwFkN7CpVI2_2t">
    <mxGraphModel dx="2048" dy="775" grid="1" gridSize="10" guides="1" tooltips="1" connect="1" arrows="1" fold="1" page="1" pageScale="1" pageWidth="827" pageHeight="1169" math="0" shadow="0">
      <root>
        <mxCell id="0" />
        <mxCell id="1" parent="0" />
        <mxCell id="kR5QkINkV1Mwaa00Vd2o-2" value="" style="whiteSpace=wrap;html=1;aspect=fixed;" parent="1" vertex="1">
          <mxGeometry y="70" width="630" height="630" as="geometry" />
        </mxCell>
        <mxCell id="kR5QkINkV1Mwaa00Vd2o-1" value="MONOLITHIC APPLICATION" style="text;html=1;align=center;verticalAlign=middle;resizable=0;points=[];autosize=1;strokeColor=none;fillColor=none;" parent="1" vertex="1">
          <mxGeometry y="85" width="180" height="30" as="geometry" />
        </mxCell>
        <mxCell id="kR5QkINkV1Mwaa00Vd2o-3" value="" style="whiteSpace=wrap;html=1;aspect=fixed;" parent="1" vertex="1">
          <mxGeometry x="20" y="145" width="120" height="120" as="geometry" />
        </mxCell>
        <mxCell id="kR5QkINkV1Mwaa00Vd2o-6" value="" style="whiteSpace=wrap;html=1;aspect=fixed;" parent="1" vertex="1">
          <mxGeometry x="210" y="145" width="120" height="120" as="geometry" />
        </mxCell>
        <mxCell id="kR5QkINkV1Mwaa00Vd2o-8" value="" style="whiteSpace=wrap;html=1;aspect=fixed;" parent="1" vertex="1">
          <mxGeometry x="400" y="145" width="120" height="120" as="geometry" />
        </mxCell>
        <mxCell id="kR5QkINkV1Mwaa00Vd2o-9" value="UI LAYER" style="text;html=1;align=center;verticalAlign=middle;resizable=0;points=[];autosize=1;strokeColor=none;fillColor=none;" parent="1" vertex="1">
          <mxGeometry x="40" y="180" width="80" height="30" as="geometry" />
        </mxCell>
        <mxCell id="kR5QkINkV1Mwaa00Vd2o-10" value="BUSINESS LOGIC" style="text;html=1;align=center;verticalAlign=middle;resizable=0;points=[];autosize=1;strokeColor=none;fillColor=none;" parent="1" vertex="1">
          <mxGeometry x="210" y="180" width="120" height="30" as="geometry" />
        </mxCell>
        <mxCell id="kR5QkINkV1Mwaa00Vd2o-12" value="DATA ACCESS" style="text;html=1;align=center;verticalAlign=middle;resizable=0;points=[];autosize=1;strokeColor=none;fillColor=none;" parent="1" vertex="1">
          <mxGeometry x="405" y="180" width="110" height="30" as="geometry" />
        </mxCell>
        <mxCell id="kR5QkINkV1Mwaa00Vd2o-13" value="MICROSERVICES APPLICATIONS&lt;br&gt;" style="text;html=1;align=center;verticalAlign=middle;resizable=0;points=[];autosize=1;strokeColor=none;fillColor=none;" parent="1" vertex="1">
          <mxGeometry x="10" y="370" width="210" height="30" as="geometry" />
        </mxCell>
        <mxCell id="kR5QkINkV1Mwaa00Vd2o-17" value="" style="endArrow=none;html=1;rounded=0;entryX=0.999;entryY=0.446;entryDx=0;entryDy=0;entryPerimeter=0;exitX=-0.004;exitY=0.445;exitDx=0;exitDy=0;exitPerimeter=0;" parent="1" source="kR5QkINkV1Mwaa00Vd2o-2" target="kR5QkINkV1Mwaa00Vd2o-2" edge="1">
          <mxGeometry width="50" height="50" relative="1" as="geometry">
            <mxPoint x="410" y="390" as="sourcePoint" />
            <mxPoint x="440" y="370" as="targetPoint" />
            <Array as="points">
              <mxPoint x="230" y="351" />
            </Array>
          </mxGeometry>
        </mxCell>
        <mxCell id="kR5QkINkV1Mwaa00Vd2o-18" value="" style="whiteSpace=wrap;html=1;aspect=fixed;" parent="1" vertex="1">
          <mxGeometry x="10" y="440" width="190" height="190" as="geometry" />
        </mxCell>
        <mxCell id="kR5QkINkV1Mwaa00Vd2o-19" value="" style="whiteSpace=wrap;html=1;aspect=fixed;" parent="1" vertex="1">
          <mxGeometry x="223.5" y="440" width="190" height="190" as="geometry" />
        </mxCell>
        <mxCell id="kR5QkINkV1Mwaa00Vd2o-20" value="" style="whiteSpace=wrap;html=1;aspect=fixed;" parent="1" vertex="1">
          <mxGeometry x="430" y="440" width="190" height="190" as="geometry" />
        </mxCell>
        <mxCell id="kR5QkINkV1Mwaa00Vd2o-22" value="MICROSERVICE 1" style="text;html=1;align=center;verticalAlign=middle;resizable=0;points=[];autosize=1;strokeColor=none;fillColor=none;" parent="1" vertex="1">
          <mxGeometry x="25" y="480" width="130" height="30" as="geometry" />
        </mxCell>
        <mxCell id="kR5QkINkV1Mwaa00Vd2o-24" value="MICROSERVICE 3" style="text;html=1;align=center;verticalAlign=middle;resizable=0;points=[];autosize=1;strokeColor=none;fillColor=none;" parent="1" vertex="1">
          <mxGeometry x="460" y="480" width="130" height="30" as="geometry" />
        </mxCell>
        <mxCell id="kR5QkINkV1Mwaa00Vd2o-25" value="" style="whiteSpace=wrap;html=1;aspect=fixed;" parent="1" vertex="1">
          <mxGeometry x="50" y="515" width="90" height="90" as="geometry" />
        </mxCell>
        <mxCell id="kR5QkINkV1Mwaa00Vd2o-26" value="" style="whiteSpace=wrap;html=1;aspect=fixed;" parent="1" vertex="1">
          <mxGeometry x="260" y="505" width="100" height="100" as="geometry" />
        </mxCell>
        <mxCell id="kR5QkINkV1Mwaa00Vd2o-27" value="" style="whiteSpace=wrap;html=1;aspect=fixed;" parent="1" vertex="1">
          <mxGeometry x="485" y="510" width="90" height="90" as="geometry" />
        </mxCell>
        <mxCell id="kR5QkINkV1Mwaa00Vd2o-28" value="UI LAYER" style="text;html=1;align=center;verticalAlign=middle;resizable=0;points=[];autosize=1;strokeColor=none;fillColor=none;" parent="1" vertex="1">
          <mxGeometry x="50" y="540" width="80" height="30" as="geometry" />
        </mxCell>
        <mxCell id="kR5QkINkV1Mwaa00Vd2o-29" value="BUSINESS LOGIC" style="text;html=1;align=center;verticalAlign=middle;resizable=0;points=[];autosize=1;strokeColor=none;fillColor=none;" parent="1" vertex="1">
          <mxGeometry x="250" y="540" width="120" height="30" as="geometry" />
        </mxCell>
        <mxCell id="kR5QkINkV1Mwaa00Vd2o-30" value="DATA ACCESS" style="text;html=1;align=center;verticalAlign=middle;resizable=0;points=[];autosize=1;strokeColor=none;fillColor=none;" parent="1" vertex="1">
          <mxGeometry x="470" y="540" width="110" height="30" as="geometry" />
        </mxCell>
        <mxCell id="kR5QkINkV1Mwaa00Vd2o-31" value="MICROSERVICE 2" style="text;html=1;align=center;verticalAlign=middle;resizable=0;points=[];autosize=1;strokeColor=none;fillColor=none;" parent="1" vertex="1">
          <mxGeometry x="245" y="475" width="130" height="30" as="geometry" />
        </mxCell>
      </root>
    </mxGraphModel>
  </diagram>
</mxfile>
